<svg width="226" height="226" viewBox="0 0 226 226" fill="none" xmlns="http://www.w3.org/2000/svg">
<g clip-path="url(#clip0_1_91)">
<path d="M139.032 172.41L126.016 168.073C129.769 165.328 132.557 161.467 133.983 157.042C135.409 152.616 135.399 147.853 133.956 143.434C132.512 139.014 129.707 135.164 125.944 132.435C122.18 129.705 117.649 128.235 113 128.235C108.351 128.235 103.82 129.705 100.057 132.435C96.2928 135.164 93.4885 139.014 92.0446 143.434C90.6006 147.853 90.5909 152.616 92.0168 157.042C93.4427 161.467 96.2313 165.328 99.9838 168.073L86.9677 172.41C83.1662 173.672 79.8593 176.101 77.5169 179.351C75.1746 182.6 73.9159 186.505 73.9197 190.511V198.559C73.9225 200.672 74.7635 202.699 76.2582 204.194C77.7529 205.688 79.7794 206.529 81.8932 206.532H144.103C146.218 206.53 148.245 205.69 149.741 204.195C151.236 202.7 152.078 200.673 152.08 198.559V190.511C152.084 186.505 150.825 182.6 148.483 179.351C146.141 176.101 142.834 173.672 139.032 172.41ZM98.0134 150.318C98.0134 147.354 98.8924 144.457 100.539 141.992C102.186 139.528 104.526 137.607 107.265 136.472C110.003 135.338 113.017 135.041 115.924 135.62C118.831 136.198 121.501 137.625 123.597 139.721C125.693 141.817 127.12 144.487 127.699 147.394C128.277 150.302 127.98 153.315 126.846 156.053C125.712 158.792 123.791 161.132 121.326 162.779C118.862 164.426 115.964 165.305 113 165.305C109.027 165.3 105.218 163.72 102.408 160.91C99.5985 158.101 98.0181 154.291 98.0134 150.318ZM145.018 198.555C145.018 198.798 144.922 199.031 144.75 199.203C144.579 199.375 144.346 199.472 144.103 199.473H81.8932C81.6504 199.472 81.4177 199.375 81.2463 199.203C81.0749 199.031 80.9787 198.798 80.9787 198.555V190.511C80.9764 187.986 81.7698 185.526 83.2463 183.478C84.7227 181.43 86.807 179.9 89.2029 179.105L106.043 173.49C110.561 171.997 115.439 171.997 119.957 173.49L136.801 179.105C139.195 179.901 141.278 181.432 142.753 183.48C144.228 185.527 145.021 187.987 145.018 190.511V198.555Z" fill="black"/>
<path d="M74.0892 121.125C74.0683 121.28 74.0576 121.436 74.0574 121.592V121.627C74.0653 122.525 74.4148 123.386 75.035 124.035C75.6551 124.684 76.4992 125.073 77.3957 125.122C78.2921 125.171 79.1736 124.877 79.8608 124.299C80.548 123.721 80.9894 122.903 81.0952 122.012C81.3973 119.796 82.3169 117.711 83.7488 115.993C85.1808 114.276 87.0672 112.996 89.1923 112.301L106.015 106.69C110.545 105.191 115.436 105.188 119.967 106.683L136.804 112.297C138.916 112.988 140.792 114.256 142.221 115.957C143.65 117.658 144.575 119.724 144.891 121.923C144.937 122.389 145.076 122.841 145.298 123.252C145.521 123.664 145.823 124.027 146.187 124.321C146.551 124.614 146.97 124.833 147.419 124.964C147.868 125.094 148.339 125.134 148.804 125.081C149.268 125.028 149.718 124.884 150.126 124.656C150.535 124.427 150.894 124.12 151.183 123.752C151.471 123.384 151.684 122.963 151.809 122.512C151.933 122.061 151.967 121.589 151.907 121.125C151.444 117.589 149.99 114.255 147.714 111.508C145.438 108.762 142.432 106.714 139.043 105.602L126.023 101.259C129.774 98.5124 132.561 94.6509 133.985 90.2258C135.41 85.8007 135.399 81.0386 133.954 76.6201C132.51 72.2016 129.705 68.3528 125.942 65.6238C122.178 62.8948 117.649 61.4253 113 61.4253C108.351 61.4253 103.822 62.8948 100.058 65.6238C96.2949 68.3528 93.4905 72.2016 92.0459 76.6201C90.6013 81.0386 90.5904 85.8007 92.0148 90.2258C93.4392 94.6509 96.2259 98.5124 99.9768 101.259L86.95 105.602C83.5615 106.715 80.5564 108.763 78.281 111.509C76.0056 114.256 74.5525 117.589 74.0892 121.125ZM98.0134 83.5141C98.0127 80.5499 98.891 77.652 100.537 75.187C102.184 72.722 104.524 70.8006 107.262 69.6657C110.001 68.5309 113.014 68.2336 115.922 68.8115C118.829 69.3893 121.5 70.8164 123.596 72.9122C125.692 75.0079 127.12 77.6783 127.698 80.5855C128.277 83.4927 127.98 86.5062 126.846 89.2449C125.712 91.9835 123.791 94.3243 121.326 95.9712C118.862 97.6181 115.964 98.4972 113 98.4972C109.027 98.4925 105.219 96.9125 102.409 94.1038C99.5998 91.295 98.019 87.4867 98.0134 83.5141ZM198.813 165.376L185.797 161.032C189.548 158.286 192.334 154.424 193.759 149.999C195.183 145.574 195.172 140.812 193.728 136.394C192.283 131.975 189.479 128.126 185.715 125.397C181.952 122.668 177.422 121.199 172.773 121.199C168.125 121.199 163.595 122.668 159.832 125.397C156.068 128.126 153.264 131.975 151.819 136.394C150.375 140.812 150.364 145.574 151.788 149.999C153.213 154.424 155.999 158.286 159.75 161.032L150.544 164.104C150.084 164.233 149.654 164.454 149.282 164.754C148.909 165.054 148.601 165.427 148.377 165.849C148.153 166.272 148.017 166.735 147.977 167.212C147.938 167.689 147.995 168.168 148.147 168.622C148.298 169.076 148.54 169.494 148.858 169.851C149.175 170.209 149.562 170.498 149.995 170.701C150.428 170.904 150.898 171.018 151.376 171.034C151.854 171.05 152.33 170.969 152.776 170.796L165.789 166.463C170.316 164.961 175.208 164.959 179.737 166.456L196.581 172.071C198.975 172.867 201.057 174.398 202.531 176.446C204.005 178.494 204.796 180.954 204.791 183.477V191.528C204.791 191.771 204.695 192.005 204.522 192.177C204.35 192.349 204.117 192.446 203.873 192.446H162.678C161.741 192.446 160.843 192.818 160.181 193.48C159.518 194.143 159.146 195.041 159.146 195.977C159.146 196.914 159.518 197.812 160.181 198.474C160.843 199.137 161.741 199.509 162.678 199.509H203.88C205.996 199.506 208.024 198.664 209.519 197.168C211.015 195.672 211.855 193.643 211.857 191.528V183.477C211.862 179.472 210.605 175.567 208.264 172.318C205.923 169.068 202.613 166.639 198.813 165.376ZM172.773 158.271C169.809 158.271 166.911 157.393 164.446 155.747C161.981 154.1 160.06 151.76 158.925 149.022C157.79 146.283 157.493 143.27 158.071 140.362C158.649 137.455 160.076 134.784 162.172 132.688C164.267 130.592 166.938 129.164 169.845 128.586C172.752 128.007 175.766 128.304 178.504 129.438C181.243 130.572 183.584 132.493 185.231 134.958C186.878 137.422 187.757 140.32 187.757 143.284C187.752 147.257 186.172 151.065 183.363 153.875C180.554 156.684 176.746 158.265 172.773 158.271ZM29.4189 172.071L46.2453 166.463C50.7729 164.96 55.6646 164.958 60.1937 166.456L73.224 170.8C73.6668 170.958 74.1368 171.027 74.6064 171.001C75.0761 170.975 75.5358 170.856 75.9588 170.65C76.3817 170.445 76.7593 170.157 77.0694 169.803C77.3794 169.449 77.6157 169.037 77.7644 168.591C77.9131 168.145 77.9711 167.673 77.9351 167.204C77.899 166.736 77.7697 166.279 77.5547 165.86C77.3396 165.442 77.0432 165.071 76.6827 164.769C76.3223 164.467 75.9052 164.239 75.4558 164.101L66.2498 161.032C70.0006 158.286 72.7874 154.424 74.2118 149.999C75.6362 145.574 75.6253 140.812 74.1806 136.394C72.736 131.975 69.9317 128.126 66.1683 125.397C62.4049 122.668 57.8752 121.199 53.2265 121.199C48.5779 121.199 44.0482 122.668 40.2848 125.397C36.5214 128.126 33.717 131.975 32.2724 136.394C30.8278 140.812 30.8169 145.574 32.2413 149.999C33.6657 154.424 36.4525 158.286 40.2033 161.032L27.1906 165.368C23.3896 166.633 20.0838 169.064 17.7427 172.314C15.4017 175.565 14.1445 179.471 14.1497 183.477V191.528C14.1516 193.643 14.9925 195.672 16.488 197.168C17.9835 198.664 20.0114 199.506 22.1268 199.509H63.3295C64.266 199.509 65.1642 199.137 65.8264 198.474C66.4887 197.812 66.8607 196.914 66.8607 195.977C66.8607 195.041 66.4887 194.143 65.8264 193.48C65.1642 192.818 64.266 192.446 63.3295 192.446H22.1233C21.8798 192.446 21.6463 192.349 21.4741 192.177C21.3019 192.005 21.2052 191.771 21.2052 191.528V183.477C21.2021 180.954 21.9941 178.494 23.4685 176.446C24.9429 174.399 27.0249 172.868 29.4189 172.071ZM38.2399 143.284C38.2406 140.321 39.1199 137.425 40.7665 134.961C42.4131 132.498 44.7532 130.578 47.4909 129.444C50.2285 128.311 53.2408 128.014 56.1469 128.593C59.053 129.171 61.7225 130.598 63.8177 132.693C65.9129 134.788 67.3398 137.458 67.918 140.364C68.4963 143.27 68.1999 146.282 67.0663 149.02C65.9327 151.757 64.0128 154.097 61.5494 155.744C59.086 157.391 56.1896 158.27 53.2265 158.271C49.253 158.267 45.4433 156.687 42.6335 153.877C39.8238 151.067 38.2437 147.258 38.2399 143.284Z" fill="black"/>
<path d="M34.3449 114.088C34.7051 113.795 35.004 113.434 35.2245 113.025C35.445 112.617 35.5828 112.169 35.6301 111.707C35.6773 111.245 35.633 110.779 35.4997 110.334C35.3665 109.889 35.1468 109.475 34.8534 109.116C25.2002 97.0025 20.3421 81.7607 21.2051 66.2957C20.8379 28.0381 66.8995 5.46634 97.0034 28.9809L110.881 39.3981C111.492 39.8582 112.235 40.107 113 40.107C113.764 40.107 114.508 39.8582 115.119 39.3981L128.997 28.9809C135.973 23.632 144.321 20.3656 153.075 19.5589C161.829 18.7523 170.633 20.4382 178.469 24.4221C210.918 39.3734 211.434 84.8312 191.147 109.119C190.582 109.848 190.324 110.768 190.429 111.684C190.533 112.6 190.992 113.438 191.706 114.021C192.421 114.603 193.335 114.883 194.253 114.8C195.171 114.718 196.021 114.279 196.62 113.579C207.338 100.201 212.76 83.3469 211.854 66.2286C211.84 22.0879 159.764 -3.443 124.756 23.3345L112.996 32.1626L101.241 23.3345C93.0538 17.1899 83.3 13.4782 73.0991 12.6254C62.8982 11.7726 52.6636 13.8133 43.5699 18.5132C34.4761 23.2131 26.8918 30.3817 21.6873 39.1964C16.4828 48.0111 13.8691 58.1146 14.1462 68.3473C13.6531 84.7614 19.0563 100.809 29.3764 113.583C29.6695 113.942 30.0305 114.24 30.4388 114.46C30.8471 114.68 31.2947 114.817 31.7561 114.864C32.2175 114.911 32.6835 114.867 33.1277 114.733C33.5719 114.6 33.9855 114.381 34.3449 114.088Z" fill="#B73010"/>
</g>
<defs>
<clipPath id="clip0_1_91">
<rect width="226" height="226" fill="white"/>
</clipPath>
</defs>
</svg>
