<svg width="221" height="221" viewBox="0 0 221 221" fill="none" xmlns="http://www.w3.org/2000/svg">
<path d="M176.685 104.607C176.063 102.305 174.59 100.394 172.541 99.2198L166.832 95.9278C164.553 94.6156 161.952 94.4545 159.65 95.2142C159.399 93.9947 158.894 92.8417 158.169 91.8302C157.443 90.8188 156.512 89.9716 155.437 89.3439L149.728 86.0519C147.449 84.7397 144.847 84.5786 142.545 85.3382L142.476 84.8778C141.854 82.5757 140.381 80.665 138.332 79.491L132.623 76.199C131.265 75.4163 129.792 75.0709 128.341 75.0479L144.663 46.7553C146.298 43.9468 146.735 40.6548 145.883 37.524C145.031 34.3931 143.029 31.7457 140.22 30.1343C138.838 29.3313 137.311 28.8101 135.726 28.6007C134.142 28.3912 132.532 28.4978 130.989 28.9142C129.443 29.3215 127.994 30.0319 126.725 31.0041C125.457 31.9763 124.394 33.1909 123.599 34.5773L95.3294 83.5426C94.7078 71.825 91.577 52.0962 77.6033 50.4156C73.8279 49.9552 71.0884 50.6689 69.2238 52.5796C65.6785 56.2169 66.6915 62.962 67.8655 70.7661C68.1418 72.5847 68.418 74.4724 68.6482 76.3601C70.0755 87.9856 70.7201 95.007 67.4742 104.238C61.0744 122.402 62.2715 129.239 66.5073 140.496C67.244 142.476 67.0598 144.732 65.9778 146.666L64.0441 150.165L60.614 148.185C59.509 147.541 58.1047 147.932 57.4601 149.037L44.2922 171.827C43.9929 172.357 43.9008 172.979 44.062 173.577C44.2231 174.176 44.6145 174.659 45.144 174.981L108.451 211.538C108.797 211.746 109.211 211.838 109.602 211.838C109.809 211.838 109.994 211.815 110.201 211.769C110.799 211.607 111.283 211.216 111.605 210.687L124.773 187.896C125.418 186.791 125.026 185.387 123.921 184.742L120.56 182.808L123.254 178.158C124.059 176.754 125.279 175.649 126.684 175.05C133.429 172.196 139.184 167.983 144.847 161.813C151.247 154.815 154.47 148.968 159.811 139.322C161.652 135.984 163.747 132.186 166.326 127.72L175.764 111.375C176.961 109.326 177.261 106.932 176.662 104.63L176.685 104.607ZM145.308 89.4359C146.021 89.4359 146.758 89.6201 147.449 90.0115L153.158 93.3035C155.207 94.4775 155.897 97.1019 154.723 99.1507L145.285 115.496C144.259 117.19 142.61 118.415 140.691 118.907C138.773 119.399 136.738 119.12 135.023 118.128C133.309 117.137 132.051 115.513 131.52 113.604C130.99 111.696 131.229 109.656 132.186 107.922L141.624 91.5769C142.407 90.1956 143.857 89.4359 145.331 89.4359H145.308ZM124.474 81.701C125.256 80.3197 126.707 79.56 128.18 79.56C128.917 79.56 129.63 79.7442 130.321 80.1355L136.03 83.4275C137.02 84.003 137.734 84.9239 138.033 86.0289C138.332 87.1339 138.171 88.2849 137.596 89.2748L128.157 105.62C127.144 107.369 125.51 108.635 123.553 109.142C121.596 109.671 119.547 109.395 117.798 108.382C116.061 107.377 114.794 105.724 114.276 103.786C113.758 101.848 114.031 99.7829 115.035 98.0457L124.474 81.701ZM141.463 158.66C136.191 164.415 131.104 168.144 124.911 170.769C122.586 171.758 120.606 173.531 119.294 175.81L116.601 180.46L68.0497 152.421L70.0295 148.853C71.756 145.722 72.0553 142.062 70.8352 138.816C67.1058 128.94 65.5865 123.415 71.8251 105.712C75.4164 95.5365 74.7027 87.7094 73.2294 75.7616C72.9992 73.8048 72.6999 71.8941 72.4236 70.0294C71.5258 63.9749 70.582 57.7363 72.5157 55.7335C73.2984 54.9277 74.8178 54.6745 77.0278 54.9277C89.7583 56.4701 91.2777 82.0923 90.7713 91.8301C90.7488 92.346 90.8998 92.8546 91.2001 93.2747C91.5004 93.6948 91.9328 94.0022 92.4282 94.1479C92.9236 94.2936 93.4535 94.2692 93.9335 94.0786C94.4134 93.888 94.8157 93.5422 95.0761 93.0963L127.559 36.8334C128.571 35.0838 130.206 33.8176 132.163 33.3112C134.119 32.7817 136.168 33.0579 137.918 34.0709C139.668 35.0838 140.934 36.7182 141.44 38.675C141.97 40.6318 141.693 42.6576 140.68 44.4302L111.053 95.7437C109.849 97.8323 109.291 100.231 109.45 102.636C109.609 105.042 110.478 107.346 111.946 109.258C113.415 111.17 115.417 112.604 117.7 113.378C119.983 114.152 122.445 114.232 124.773 113.608C125.418 113.424 126.039 113.17 126.638 112.917C126.818 114.845 127.458 116.702 128.503 118.332C129.549 119.962 130.969 121.318 132.646 122.287C134.557 123.392 136.652 123.921 138.724 123.921C140.473 123.921 142.177 123.53 143.765 122.816C144.134 126.592 146.228 130.137 149.774 132.163C151.684 133.268 153.779 133.797 155.851 133.797C156.496 133.797 157.14 133.728 157.785 133.636C157.117 134.833 156.473 136.007 155.874 137.089C150.694 146.459 147.564 152.122 141.532 158.706L141.463 158.66ZM171.805 109.027L162.366 125.371C161.341 127.066 159.691 128.291 157.773 128.783C155.854 129.275 153.819 128.996 152.105 128.004C150.39 127.013 149.132 125.389 148.602 123.48C148.071 121.572 148.31 119.532 149.267 117.798L158.706 101.453C159.488 100.072 160.939 99.3119 162.412 99.3119C163.126 99.3119 163.862 99.4961 164.553 99.8874L170.262 103.179C171.252 103.755 171.966 104.676 172.265 105.781C172.564 106.886 172.403 108.037 171.828 109.027H171.805Z" fill="black"/>
<path d="M95.1453 33.196C94.1554 33.196 93.2345 32.5284 92.9353 31.5155H92.9122L87.5484 12.6844C87.4652 12.3927 87.4404 12.0875 87.4752 11.7861C87.5101 11.4848 87.6039 11.1932 87.7514 10.9282C87.8989 10.6631 88.0972 10.4297 88.3349 10.2412C88.5726 10.0528 88.8451 9.91299 89.1368 9.82985C89.4286 9.74672 89.7338 9.72186 90.0351 9.75669C90.3365 9.79152 90.628 9.88537 90.8931 10.0329C91.1582 10.1804 91.3916 10.3786 91.58 10.6163C91.7685 10.8541 91.9083 11.1266 91.9914 11.4183L97.3553 30.2493C97.7006 31.4925 96.9869 32.7586 95.7668 33.1039C95.5596 33.173 95.3525 33.196 95.1453 33.196Z" fill="#B73010"/>
<path d="M83.2205 41.0001C82.7831 41.0001 82.3227 40.885 81.9313 40.6087L65.7246 29.6278C64.6657 28.9141 64.3894 27.4868 65.1031 26.4279C65.8167 25.3689 67.244 25.0927 68.303 25.8063L84.5096 36.7873C84.7611 36.9561 84.9767 37.1729 85.1442 37.4253C85.3116 37.6777 85.4275 37.9607 85.4852 38.2581C85.543 38.5554 85.5415 38.8612 85.4807 39.1579C85.4199 39.4546 85.3012 39.7365 85.1312 39.9871C84.6938 40.6548 83.9571 41.0001 83.2205 41.0001Z" fill="#B73010"/>
<path d="M112.517 32.4716C111.995 32.7867 111.369 32.8816 110.776 32.7356C109.533 32.4363 108.797 31.1932 109.096 29.9501L113.861 10.9579C113.93 10.6627 114.058 10.3843 114.236 10.1392C114.415 9.89407 114.64 9.6871 114.9 9.5305C115.159 9.37389 115.448 9.27082 115.748 9.22734C116.048 9.18387 116.353 9.20087 116.647 9.27735C116.941 9.34874 117.217 9.47763 117.461 9.65657C117.705 9.83552 117.911 10.061 118.067 10.32C118.224 10.5789 118.327 10.8663 118.372 11.1654C118.416 11.4646 118.401 11.7696 118.327 12.0629L113.562 31.0551C113.415 31.6471 113.039 32.1565 112.517 32.4716Z" fill="#B73010"/>
</svg>
