<svg width="49" height="49" viewBox="0 0 49 49" fill="none" xmlns="http://www.w3.org/2000/svg">
<g clip-path="url(#clip0_21_43)">
<path d="M41.8516 5.59034C40.8741 4.61279 39.4077 4.61279 38.4302 5.59034C37.4526 6.5679 37.4526 8.27862 38.4302 9.25618C46.0062 17.8098 46.0062 31.2512 38.4302 39.5604C37.4526 40.538 37.4526 42.2487 38.4302 43.2263C39.1633 44.4482 40.8741 44.4482 41.8516 43.2263C51.3828 32.9619 51.3828 16.0991 41.8516 5.59034ZM10.5698 9.25618C11.5474 8.27862 11.5474 6.5679 10.5698 5.59034C9.59227 4.61279 8.12593 4.61279 7.14838 5.59034C-2.38279 15.8547 -2.38279 32.9619 7.14838 43.2263C8.12593 44.4482 9.83666 44.4482 10.5698 43.2263C11.5474 42.2487 11.5474 40.538 10.5698 39.5604C2.99377 31.0068 2.99377 17.5654 10.5698 9.25618Z" fill="#B73010"/>
<path d="M34.7644 13.1665C33.7869 12.189 32.3205 12.189 31.343 13.1665C30.3654 14.1441 30.3654 15.8548 31.343 16.8324C35.2532 20.987 35.2532 27.8299 31.343 31.9845C30.3654 32.962 30.3654 34.6728 31.343 35.6503C32.3205 36.8723 34.0312 36.8723 34.7644 35.8947C40.3854 29.5406 40.3854 19.5206 34.7644 13.1665ZM17.6572 16.588C18.6347 15.6104 18.6347 13.8997 17.6572 12.9221C16.6796 11.9446 15.2133 11.9446 14.2357 12.9221C8.61478 19.2762 8.61478 29.2962 14.2357 35.6503C14.9689 36.8723 16.6796 36.8723 17.6572 35.4059C18.6347 34.4284 18.6347 32.7176 17.6572 31.7401C13.747 27.5855 13.747 20.7426 17.6572 16.588Z" fill="#B73010"/>
<path d="M24.5001 29.2961C27.1995 29.2961 29.3879 27.1077 29.3879 24.4083C29.3879 21.7088 27.1995 19.5205 24.5001 19.5205C21.8006 19.5205 19.6123 21.7088 19.6123 24.4083C19.6123 27.1077 21.8006 29.2961 24.5001 29.2961Z" fill="#B73010"/>
</g>
<defs>
<clipPath id="clip0_21_43">
<rect width="49" height="49" fill="white"/>
</clipPath>
</defs>
</svg>
