<svg width="233" height="233" viewBox="0 0 233 233" fill="none" xmlns="http://www.w3.org/2000/svg">
<path fill-rule="evenodd" clip-rule="evenodd" d="M191.169 118.568C191.409 128.647 191.568 137.857 191.089 146.988V171.624C191.089 180.768 186.907 188.615 179.343 193.724L148.898 214.249L118.453 193.724C110.862 188.615 106.68 180.768 106.68 171.624V146.988C106.228 137.873 106.361 128.66 106.627 118.568C121.497 115.963 136.622 110.62 148.899 103.265C161.215 110.645 176.275 115.959 191.169 118.568ZM100.367 172.923H48.9597C44.8845 172.923 41.5815 169.618 41.5815 165.559V98.6894C41.5815 94.6301 44.8845 91.3248 48.9597 91.3248H159.792C163.867 91.3248 167.17 94.6301 167.17 98.6894V105.183C161.15 102.778 155.557 99.9705 150.576 96.8515C150.069 96.5343 149.482 96.3661 148.884 96.3661C148.286 96.3661 147.7 96.5343 147.193 96.8515C134.501 104.79 118.64 110.318 103.031 112.721C101.512 112.956 100.394 114.242 100.34 115.779C100.047 127.009 99.8343 137.133 100.34 147.231V171.624C100.34 172.06 100.34 172.492 100.367 172.923ZM61.7715 28.0401C61.813 28.0377 61.8523 28.0201 61.8818 27.9906C61.9112 27.9611 61.9288 27.9219 61.9313 27.8803V22.5586L56.4441 28.0401H61.7715ZM145.568 18.0705C145.648 18.0705 145.728 18.153 145.728 18.2331V84.9746H51.9696V34.3903H61.7715C65.3676 34.3903 68.2973 31.4685 68.2973 27.8803V18.0705H145.568ZM152.067 49.2608V84.9741H159.792C167.356 84.9741 173.509 91.1295 173.509 98.689V107.524C177.778 108.954 181.873 110.115 186.268 111.112V58.0827C186.268 53.219 182.326 49.2608 177.452 49.2608H152.067ZM197.455 147.23V171.624C197.455 182.944 192.287 192.663 182.885 198.989L150.655 220.713C148.618 222.087 146.991 220.645 145.488 219.605L114.883 198.989C107.692 194.138 102.977 187.298 101.192 179.273H48.9597C41.3951 179.273 35.2421 173.123 35.2421 165.558V98.6894C35.2421 92.2754 39.6635 86.8791 45.6036 85.3903V31.215C45.6036 30.3734 45.9498 29.5691 46.536 28.9721L62.8638 12.6495C63.45 12.0554 64.2757 11.7227 65.101 11.7227H145.568C149.137 11.7227 152.067 14.6421 152.067 18.2327V42.9106H177.451C185.815 42.9106 192.634 49.7189 192.634 58.0827V112.374C193.326 112.497 194.046 112.617 194.738 112.721C196.256 112.955 197.402 114.242 197.428 115.779C197.748 126.995 197.961 137.112 197.455 147.23ZM131.238 65.9991H66.4594C66.0428 65.9988 65.6303 66.0806 65.2454 66.24C64.8605 66.3994 64.5108 66.6331 64.2164 66.9278C63.922 67.2225 63.6885 67.5723 63.5295 67.9574C63.3705 68.3424 63.289 68.755 63.2897 69.1716C63.2888 69.5884 63.3701 70.0012 63.529 70.3865C63.6879 70.7717 63.9212 71.1219 64.2157 71.4168C64.5102 71.7117 64.8599 71.9457 65.2449 72.1052C65.6299 72.2647 66.0427 72.3467 66.4594 72.3465H131.238C131.655 72.3467 132.068 72.2647 132.453 72.1052C132.838 71.9457 133.187 71.7117 133.482 71.4168C133.776 71.1219 134.01 70.7717 134.168 70.3865C134.327 70.0012 134.409 69.5884 134.408 69.1716C134.408 68.755 134.327 68.3424 134.168 67.9574C134.009 67.5723 133.776 67.2225 133.481 66.9278C133.187 66.6331 132.837 66.3994 132.452 66.24C132.067 66.0806 131.655 65.9988 131.238 65.9991ZM131.238 47.0208H66.4594C66.0425 47.0201 65.6296 47.1018 65.2444 47.2612C64.8592 47.4205 64.5093 47.6544 64.2147 47.9495C63.9202 48.2445 63.6869 48.5948 63.5281 48.9802C63.3693 49.3657 63.2883 49.7787 63.2897 50.1956C63.2888 50.6124 63.3701 51.0253 63.529 51.4106C63.6879 51.7959 63.9212 52.146 64.2157 52.441C64.5101 52.7359 64.8599 52.9699 65.2449 53.1295C65.6299 53.2891 66.0426 53.3711 66.4594 53.3709H131.238C131.655 53.3712 132.068 53.2892 132.453 53.1296C132.838 52.9701 133.187 52.7361 133.482 52.4411C133.776 52.1461 134.01 51.796 134.169 51.4106C134.327 51.0253 134.409 50.6124 134.408 50.1956C134.409 49.7787 134.328 49.3657 134.169 48.9802C134.011 48.5948 133.777 48.2445 133.483 47.9495C133.188 47.6544 132.838 47.4205 132.453 47.2612C132.068 47.1018 131.655 47.0201 131.238 47.0208Z" fill="black"/>
<path fill-rule="evenodd" clip-rule="evenodd" d="M165.169 149.349C165.169 148.023 164.026 146.937 162.649 146.937H137.783C137.453 146.937 137.126 146.999 136.82 147.119C136.515 147.24 136.237 147.418 136.003 147.642C135.769 147.866 135.584 148.132 135.457 148.425C135.33 148.718 135.264 149.032 135.264 149.349V173.228C135.264 173.545 135.329 173.859 135.456 174.153C135.582 174.446 135.768 174.712 136.002 174.936C136.236 175.16 136.514 175.338 136.82 175.458C137.125 175.579 137.453 175.641 137.783 175.639H162.649C164.026 175.639 165.169 174.56 165.169 173.228V149.349ZM143.731 141.599H156.678V133.909C156.678 130.485 153.785 127.7 150.216 127.7C146.647 127.7 143.731 130.486 143.731 133.909V141.599ZM170.72 149.349V173.228C170.72 177.503 167.104 180.978 162.649 180.978H137.783C133.328 180.978 129.689 177.503 129.689 173.228V149.349C129.689 145.076 133.328 141.599 137.783 141.599H138.18V133.909C138.18 127.543 143.568 122.362 150.216 122.362C156.841 122.362 162.23 127.543 162.23 133.909V141.599H162.649C167.105 141.599 170.72 145.076 170.72 149.349Z" fill="#B73010"/>
</svg>
