<svg width="44" height="45" viewBox="0 0 44 45" fill="none" xmlns="http://www.w3.org/2000/svg">
<g clip-path="url(#clip0_21_50)">
<path d="M18.0773 21.6949C20.989 21.6949 23.5104 20.6505 25.5706 18.59C27.6308 16.5299 28.6751 14.0092 28.6751 11.0972C28.6751 8.18596 27.6308 5.665 25.5703 3.60414C23.5097 1.54431 20.9887 0.5 18.0773 0.5C15.1652 0.5 12.6444 1.54431 10.5843 3.60448C8.52419 5.66465 7.47945 8.1857 7.47945 11.0972C7.47945 14.0092 8.5241 16.5303 10.5846 18.5905C12.6451 20.6503 15.1662 21.6949 18.0773 21.6949ZM36.6206 34.3337C36.5611 33.4764 36.441 32.5411 36.264 31.5536C36.0854 30.5585 35.8556 29.6179 35.5802 28.7582C35.2959 27.8696 34.9092 26.9922 34.4312 26.1512C33.935 25.2784 33.3523 24.5184 32.6983 23.893C32.0145 23.2388 31.1773 22.7128 30.2091 22.329C29.2444 21.9474 28.1752 21.7541 27.0315 21.7541C26.5823 21.7541 26.148 21.9383 25.3091 22.4845C24.7128 22.8728 24.1147 23.2584 23.5148 23.6412C22.9384 24.0085 22.1576 24.3526 21.1931 24.6642C20.2522 24.9686 19.2968 25.1231 18.3539 25.1231C17.4109 25.1231 16.4558 24.9686 15.5139 24.6642C14.5505 24.3529 13.7697 24.0089 13.1939 23.6416C12.5262 23.2149 11.9221 22.8255 11.398 22.4841C10.5601 21.938 10.1254 21.7536 9.67626 21.7536C8.53218 21.7536 7.46338 21.9473 6.49891 22.3294C5.53143 22.7124 4.69388 23.2385 4.00939 23.8934C3.35584 24.5191 2.77276 25.2787 2.27724 26.1512C1.7996 26.9921 1.41289 27.8693 1.12818 28.7585C0.853179 29.6183 0.623297 30.5585 0.444719 31.5536C0.267775 32.5398 0.147634 33.4754 0.0881659 34.3348C0.0290086 35.1996 -0.000313432 36.0661 0.000252168 36.933C0.000252168 39.2298 0.730374 41.0892 2.17017 42.4605C3.59217 43.8137 5.47368 44.5002 7.76175 44.5002H28.948C31.2361 44.5002 33.1169 43.814 34.5393 42.4605C35.9794 41.0902 36.7095 39.2305 36.7095 36.9326C36.7092 36.0461 36.6794 35.1716 36.6206 34.3337Z" fill="#B73010"/>
</g>
<defs>
<clipPath id="clip0_21_50">
<rect width="44" height="44" fill="white" transform="translate(0 0.5)"/>
</clipPath>
</defs>
</svg>
